<svg width="474" height="1053" viewBox="0 0 474 1053" fill="none" xmlns="http://www.w3.org/2000/svg">
<path d="M211.505 828.259C211.505 819.17 212.019 809.91 213.563 800.82C219.222 766.007 235.857 743.37 263.295 733.767C277.186 728.965 302.91 722.963 319.888 737.711C327.605 744.399 332.407 753.488 337.037 762.406C341.496 770.981 346.126 779.727 353.329 786.415C357.445 790.188 362.247 793.103 366.877 795.847C371.85 798.763 376.824 801.849 381.282 805.965C394.144 817.97 400.661 836.319 398.26 853.812C395.688 871.304 384.369 887.081 368.592 894.97C363.79 897.371 358.645 899.086 353.672 900.801C343.726 904.231 334.122 907.317 328.12 915.035C324.347 919.836 322.632 925.667 320.745 931.841C319.374 936.128 318.002 940.759 315.944 944.874C306.34 963.567 280.959 971.97 260.552 963.224C233.284 951.391 223.852 911.09 218.879 889.482C215.792 875.763 211.505 852.611 211.505 828.259ZM395.516 846.266C395.516 832.204 389.514 818.141 379.225 808.366C375.109 804.593 370.307 801.678 365.334 798.591C360.532 795.676 355.559 792.589 351.271 788.644C343.554 781.613 338.752 772.524 334.122 763.778C329.492 754.86 325.033 746.457 317.83 740.112C302.224 726.564 277.701 732.223 264.496 736.854C198.3 760.177 215.62 858.785 222.48 888.453C227.282 909.547 236.371 948.647 262.095 959.794C280.616 967.854 304.454 959.966 313.2 943.159C315.258 939.215 316.458 934.928 317.83 930.64C319.717 924.467 321.603 918.121 325.719 912.805C332.407 904.231 342.697 900.801 352.815 897.371C357.788 895.656 362.761 893.941 367.22 891.712C381.968 884.337 392.601 869.589 395.002 853.126C395.345 850.896 395.516 848.667 395.516 846.266Z" fill="#E6E6E6"/>
<path d="M278.215 859.643C278.215 846.953 283.702 832.204 293.477 820.886C302.395 810.425 318.001 802.193 333.264 806.995C345.611 810.939 355.043 823.458 357.444 838.549C359.674 853.126 355.386 868.218 345.783 878.679C335.836 889.654 320.402 894.971 306.511 892.227C292.963 889.483 283.874 882.452 280.101 871.648C278.901 867.875 278.215 863.93 278.215 859.643ZM354.529 846.267C354.529 843.866 354.357 841.465 354.014 839.064C351.957 825.173 343.382 813.855 332.235 810.253C320.573 806.48 305.653 811.797 296.05 823.115C283.874 837.521 278.558 857.071 283.359 870.619C286.789 880.222 295.021 886.567 307.197 888.968C320.059 891.541 334.121 886.567 343.21 876.449C350.585 868.389 354.529 857.414 354.529 846.267Z" fill="#E6E6E6"/>
<path d="M222.995 827.402C222.995 808.538 226.424 792.074 233.456 778.526C242.373 760.863 257.122 748.172 274.099 743.542C292.792 738.569 313.543 744.914 324.347 759.148C324.861 759.834 324.69 761.034 324.004 761.549C323.318 762.063 322.117 761.892 321.603 761.206C311.656 748.001 292.449 742.17 275.128 746.8C259.523 751.088 245.117 763.435 236.714 780.07C229.511 794.132 226.253 811.453 226.767 831.518C226.767 832.375 226.082 833.233 225.053 833.233C224.024 833.233 223.338 832.547 223.338 831.518C222.995 830.146 222.995 828.774 222.995 827.402Z" fill="#E6E6E6"/>
<path d="M224.881 839.064C224.881 838.207 225.567 837.521 226.425 837.349C227.454 837.349 228.14 838.035 228.311 838.893L229.168 847.982C229.168 849.011 228.482 849.697 227.625 849.868C226.596 849.868 225.91 849.182 225.739 848.325L224.881 839.064Z" fill="#E6E6E6"/>
<path d="M238.6 919.665C238.6 918.979 239.115 918.293 239.801 917.95C240.658 917.607 241.687 918.122 242.03 919.151C248.032 938.015 260.723 951.563 273.585 953.106C287.133 954.821 301.195 945.903 305.654 933.041C305.997 932.184 306.854 931.669 307.883 932.012C308.741 932.355 309.255 933.213 308.912 934.242C303.939 948.647 288.333 958.422 273.242 956.536C259.008 954.821 245.117 940.244 238.772 920.179C238.772 920.008 238.6 919.836 238.6 919.665Z" fill="#E6E6E6"/>
<path d="M310.97 923.438C310.97 923.267 310.97 923.267 310.97 923.095C312.342 915.893 316.457 909.376 322.288 905.089C322.974 904.574 324.175 904.746 324.689 905.432C325.204 906.118 325.032 907.318 324.346 907.833C319.201 911.605 315.6 917.436 314.4 923.781C314.228 924.639 313.371 925.325 312.342 925.153C311.484 924.982 310.97 924.296 310.97 923.438Z" fill="#E6E6E6"/>
<path d="M349.042 893.084C349.042 892.227 349.556 891.541 350.414 891.369C368.592 887.768 384.026 872.162 387.285 853.984C390.543 835.806 381.454 815.741 365.677 806.137C364.819 805.623 364.648 804.594 365.162 803.737C365.677 802.879 366.706 802.708 367.563 803.222C384.712 813.683 394.316 834.777 390.715 854.67C387.113 874.563 370.821 891.026 351.1 894.799C350.242 894.971 349.213 894.456 349.042 893.427C349.042 893.427 349.042 893.256 349.042 893.084Z" fill="#E6E6E6"/>
<path d="M333.263 774.926C333.263 774.068 333.778 773.382 334.635 773.211C335.493 773.039 336.522 773.554 336.693 774.583C338.923 784.358 346.125 792.761 355.386 796.705C356.243 797.048 356.758 798.077 356.243 798.935C355.9 799.792 354.872 800.307 354.014 799.792C343.724 795.505 335.836 786.073 333.263 775.269C333.263 775.269 333.263 775.097 333.263 774.926Z" fill="#E6E6E6"/>
<path d="M292.62 871.132C292.62 870.446 292.963 869.76 293.649 869.589C294.506 869.246 295.535 869.589 295.878 870.446C297.765 875.248 301.709 879.021 306.339 881.079C311.141 883.137 316.457 883.137 321.259 881.079C322.117 880.736 323.146 881.079 323.489 881.936C323.832 882.794 323.489 883.823 322.631 884.166C316.972 886.567 310.627 886.395 305.139 884.166C299.48 881.765 295.021 877.306 292.791 871.647C292.62 871.647 292.62 871.304 292.62 871.132Z" fill="#E6E6E6"/>
<path d="M331.035 878.679C331.035 877.993 331.378 877.478 331.893 877.135C338.238 873.877 343.211 868.046 345.097 861.186C345.44 860.329 346.298 859.814 347.155 859.986C348.013 860.329 348.527 861.186 348.356 862.044C346.126 869.761 340.467 876.449 333.436 880.051C332.578 880.394 331.55 880.222 331.207 879.365C331.035 879.193 331.035 878.85 331.035 878.679Z" fill="#E6E6E6"/>
<path d="M250.09 819.686C250.09 818.314 250.433 817.113 251.29 816.084C253.177 813.855 256.95 813.512 259.179 815.398C261.58 817.285 261.923 821.058 260.037 823.287C258.15 825.688 254.549 826.202 252.148 824.316L251.976 824.144L251.805 823.973C250.776 822.944 250.09 821.401 250.09 819.686ZM257.979 819.857C257.979 819.171 257.636 818.485 257.121 817.971C256.264 817.285 254.72 817.456 253.863 818.314C253.177 819.171 253.177 820.715 254.034 821.572C254.892 822.258 256.435 822.087 257.293 821.229C257.807 820.886 257.979 820.372 257.979 819.857Z" fill="#E6E6E6"/>
<path d="M266.725 786.758C266.725 784.529 267.411 782.3 268.954 780.413C270.669 778.355 273.07 776.983 275.814 776.812C278.558 776.469 281.13 777.326 283.188 779.041C287.476 782.643 288.162 788.988 284.732 793.275C283.017 795.333 280.616 796.705 277.872 796.877C275.128 797.219 272.556 796.362 270.498 794.647C268.097 792.761 266.725 789.674 266.725 786.758ZM283.531 786.758C283.531 784.872 282.674 782.814 281.13 781.614C278.215 779.213 274.099 779.727 271.698 782.643C269.297 785.558 269.812 789.674 272.727 792.075C275.643 794.476 279.758 793.961 282.159 791.046C283.188 789.845 283.531 788.302 283.531 786.758Z" fill="#E6E6E6"/>
<path d="M283.36 934.756C283.36 933.041 283.874 931.498 284.903 930.297C287.476 927.21 291.935 926.696 295.021 929.268C296.565 930.469 297.422 932.184 297.594 934.07C297.765 935.956 297.251 937.843 296.05 939.386C293.478 942.473 289.019 942.988 285.932 940.415C284.389 939.215 283.531 937.5 283.36 935.613C283.36 935.27 283.36 934.927 283.36 934.756ZM292.964 931.841C291.42 930.469 289.019 930.812 287.647 932.355C286.275 933.898 286.618 936.299 288.162 937.671C289.705 939.043 292.106 938.7 293.478 937.157C294.85 935.442 294.507 933.212 292.964 931.841Z" fill="#E6E6E6"/>
<path d="M268.097 918.465C268.097 916.579 268.782 914.692 269.983 913.149C272.898 909.547 278.215 909.033 281.816 911.948C283.531 913.32 284.731 915.378 284.903 917.607C285.074 919.837 284.388 922.066 283.016 923.781C280.101 927.383 274.785 927.897 271.183 924.982C269.125 923.438 268.097 920.866 268.097 918.465ZM281.644 918.465C281.644 918.293 281.644 918.122 281.644 917.95C281.473 916.579 280.787 915.378 279.758 914.521C277.529 912.806 274.442 913.149 272.727 915.207C271.012 917.436 271.355 920.523 273.413 922.238C275.642 923.953 278.729 923.61 280.444 921.552C281.13 920.694 281.644 919.665 281.644 918.465Z" fill="#E6E6E6"/>
<path d="M267.754 942.646C267.754 941.617 268.097 940.416 268.955 939.559C270.669 937.501 273.928 937.158 275.986 938.873C277.015 939.73 277.701 940.931 277.872 942.303C278.044 943.675 277.701 944.875 276.843 945.904C275.986 946.933 274.785 947.619 273.413 947.791C272.041 947.962 270.841 947.619 269.812 946.762C268.44 945.561 267.754 944.189 267.754 942.646ZM273.756 941.445C273.07 940.931 272.041 940.931 271.527 941.617C271.012 942.303 271.012 943.332 271.698 943.846C272.041 944.189 272.384 944.189 272.899 944.189C273.413 944.189 273.756 944.018 273.928 943.675C274.271 943.332 274.271 942.989 274.271 942.474C274.442 942.131 274.099 941.617 273.756 941.445Z" fill="#E6E6E6"/>
<path d="M177.892 54.4852C177.892 51.5698 178.921 48.6544 180.979 46.5965C183.723 43.8526 187.153 42.4807 191.269 42.6522C195.042 42.6522 198.986 44.0241 202.416 46.2535C202.416 45.739 202.587 45.0531 202.587 44.3671C203.445 40.5942 205.846 36.9929 208.933 35.278C213.906 32.3626 220.766 33.3916 225.396 37.5074C228.311 40.2513 230.369 44.0241 231.055 48.3114C233.799 45.396 236.886 43.3381 241.002 41.6232C247.176 39.0508 253.864 39.2223 259.009 42.1377C264.839 45.396 268.612 52.2558 268.955 59.8014C269.127 64.9462 267.926 70.434 265.011 76.2647C265.354 76.2647 265.868 76.2647 266.211 76.4362C268.612 76.7792 270.67 78.1512 271.528 80.0376C272.213 81.4095 272.213 83.1245 271.528 84.4964C270.67 86.3828 269.127 87.9263 267.24 88.7837C265.868 89.2982 263.982 89.9842 261.924 89.9842C263.124 92.2136 263.982 94.9575 263.81 97.7013C263.639 100.102 262.095 102.503 260.037 103.875C258.323 104.904 256.436 105.247 254.721 104.561C252.835 103.875 251.291 101.989 250.434 99.7593C250.262 99.0733 250.091 98.5588 250.091 98.0443C247.004 99.7593 243.746 101.474 240.316 102.675C235.171 104.39 230.369 104.904 226.082 103.875C220.937 102.675 216.478 99.0733 214.763 94.786C213.734 92.3851 213.391 89.2982 214.077 86.5543C212.02 87.5833 209.79 88.6122 207.389 89.1267C202.073 90.4986 196.928 89.8127 193.327 87.4118C190.068 85.1824 188.182 81.7525 188.525 78.4941C188.868 74.8928 191.44 72.1489 193.841 70.2625C191.612 69.748 189.211 68.8906 186.982 67.6901C183.037 65.6322 180.122 62.3738 178.75 58.7725C178.064 57.4005 177.892 55.8571 177.892 54.4852ZM207.218 51.0553C207.218 51.5698 207.046 52.0843 206.532 52.4273C205.846 52.9417 204.817 52.9417 204.131 52.2558C200.701 48.6544 195.728 46.2535 191.269 46.2535C189.04 46.2535 185.953 46.768 183.38 49.1689C181.322 51.2268 180.808 54.6567 181.837 57.7435C182.866 60.4874 185.267 63.0598 188.525 64.7747C191.783 66.4897 195.385 67.3471 198.643 67.8616C199.329 68.0331 200.015 68.5476 200.015 69.2335C200.187 69.9195 199.844 70.6055 199.158 70.9485C197.614 71.8059 192.298 74.8928 191.955 78.8371C191.783 80.895 192.984 83.1245 195.213 84.6679C198.129 86.5543 202.244 87.0688 206.532 86.0398C210.648 85.0109 214.42 82.7815 218.022 80.7236C218.879 80.2091 219.737 80.5521 220.251 81.238C220.766 81.924 220.594 82.953 219.908 83.6389C216.821 85.8683 216.65 90.4986 218.022 93.757C219.394 97.1869 222.824 99.9308 226.939 100.96C230.541 101.817 234.828 101.474 239.287 99.9307C243.403 98.5588 247.347 96.1579 251.12 94.1C251.806 93.757 252.663 93.757 253.178 94.443C253.692 94.9575 253.692 95.6434 253.521 96.3294C253.521 96.5009 253.521 96.6724 253.349 96.6724C253.349 97.7013 253.521 98.2158 253.864 99.2448C254.207 100.445 255.064 101.474 255.922 101.817C256.779 102.16 257.637 101.817 258.151 101.474C259.352 100.788 260.209 99.2448 260.38 97.8728C260.552 95.129 259.18 92.5566 257.465 89.4697C257.122 88.9552 257.122 88.0977 257.637 87.5833C257.98 87.0688 258.666 86.7258 259.352 86.8973C261.409 87.2403 263.467 87.0688 266.211 86.0398C267.24 85.6968 268.269 84.6679 268.612 83.8104C268.784 83.296 268.955 82.61 268.612 81.924C268.269 81.0665 267.24 80.3806 265.868 80.2091C264.496 80.0376 263.982 80.0376 262.61 80.3806L262.438 80.3806C261.752 80.5521 261.066 80.2091 260.723 79.6946C260.38 79.1801 260.209 78.4942 260.552 77.8082C263.982 71.463 265.697 65.6322 265.525 60.3159C265.182 53.9707 262.095 48.1399 257.294 45.5675C253.178 43.1666 247.347 42.9951 242.374 45.2246C237.229 47.454 233.971 50.0264 231.055 54.3137C230.712 54.9996 229.855 55.1711 229.169 54.9996C228.483 54.8281 227.968 54.1422 227.968 53.2847C228.14 48.1399 226.253 43.3381 222.995 40.4228C219.565 37.3359 214.249 36.4784 210.648 38.5363C208.418 39.9083 206.532 42.6522 205.846 45.396C205.503 47.2825 205.674 48.9974 206.532 50.1978C207.046 50.1978 207.218 50.7123 207.218 51.0553Z" fill="#E6E6E6"/>
<path d="M187.324 52.2556C187.324 52.0841 187.324 51.9126 187.496 51.7411C187.839 50.8837 188.868 50.3692 189.725 50.7122C226.253 64.0886 257.636 82.2668 283.017 104.732C283.703 105.418 283.875 106.447 283.189 107.133C282.503 107.819 281.474 107.991 280.788 107.305C255.75 85.1822 224.71 67.1755 188.696 53.799C187.839 53.6275 187.324 52.9416 187.324 52.2556Z" fill="#E6E6E6"/>
<path d="M234.485 55.5141C234.485 54.9997 234.657 54.4852 235.171 54.1422C237.572 52.0843 240.144 50.1979 243.06 48.9974C247.004 47.2825 251.291 47.454 254.721 49.3404C258.323 51.3983 260.895 54.9997 261.409 59.63C262.095 64.0888 261.066 68.8906 258.323 74.3783C257.98 75.2358 256.951 75.5788 256.093 75.2358C255.236 74.8928 254.893 73.8639 255.236 73.0064C257.637 68.2046 258.494 63.9173 257.98 60.1444C257.465 56.7146 255.579 53.9707 253.006 52.4273C250.434 51.0553 247.347 50.8838 244.432 52.2558C241.859 53.2847 239.63 55.1712 237.4 56.8861C236.714 57.4006 235.514 57.4006 235 56.5431C234.657 56.2001 234.485 55.8571 234.485 55.5141Z" fill="#E6E6E6"/>
<path d="M208.933 50.5406C208.933 47.2823 210.476 44.0239 213.22 42.309C214.935 41.28 216.993 40.937 218.879 41.623C220.937 42.309 222.481 44.0239 223.166 45.9103C223.509 46.7678 222.995 47.7967 222.138 48.1397C221.28 48.4827 220.251 47.9682 219.908 47.1108C219.565 46.0818 218.708 45.2243 217.679 44.8814C217.164 44.7099 216.135 44.5384 215.106 45.2243C213.048 46.5963 211.848 49.5117 212.534 52.0841C212.705 52.9415 212.191 53.9705 211.334 54.142C210.476 54.3135 209.447 53.799 209.276 52.9415C209.104 52.0841 208.933 51.3981 208.933 50.5406Z" fill="#E6E6E6"/>
<path d="M207.733 68.7185C207.733 68.204 207.904 67.6895 208.419 67.3465C210.991 65.2886 214.249 64.0882 218.365 63.7452C217.165 60.8298 216.136 57.3999 215.793 54.3131C215.621 53.2841 216.307 52.5981 217.336 52.4267C218.194 52.2552 219.051 52.9411 219.223 53.9701C219.566 57.3999 220.938 61.6873 222.481 64.4311C222.824 64.9456 222.824 65.6316 222.481 66.1461C222.138 66.6605 221.624 67.0035 221.109 67.0035C216.65 67.175 213.049 68.204 210.477 70.0904C209.791 70.6049 208.59 70.6049 208.076 69.7474C207.733 69.5759 207.733 69.0614 207.733 68.7185Z" fill="#E6E6E6"/>
<path d="M212.363 76.779C212.363 76.0931 212.706 75.5786 213.392 75.2356C219.565 72.4917 226.425 71.4628 231.741 71.2913C229.684 67.3469 227.969 62.7166 227.283 58.7723C227.111 57.9148 227.626 56.8859 228.655 56.7144C229.512 56.5429 230.541 57.0574 230.713 58.0863C231.57 62.5451 233.799 67.8614 236.2 72.1487C236.543 72.6632 236.543 73.3492 236.2 73.8637C235.857 74.3781 235.343 74.7211 234.657 74.7211C229.341 74.7211 221.623 75.4071 214.764 78.494C213.906 78.8369 212.877 78.494 212.534 77.6365C212.363 77.2935 212.363 77.122 212.363 76.779Z" fill="#E6E6E6"/>
<path d="M225.568 87.5831C225.568 86.8971 226.082 86.2111 226.768 85.8681C234.314 83.6387 241.345 82.0953 247.69 81.2378C244.775 74.5496 243.403 67.0039 244.089 59.6298C244.089 58.6008 244.946 57.9148 245.975 58.0863C247.004 58.0863 247.69 58.9438 247.519 59.9727C246.833 67.3469 248.376 75.2356 251.806 81.9238C251.977 82.4383 251.977 82.9528 251.806 83.4672C251.463 83.9817 251.12 84.3247 250.434 84.3247C243.746 85.1822 236.029 86.7256 227.625 89.1265C226.768 89.4695 225.739 88.7835 225.568 87.9261C225.568 87.9261 225.568 87.7546 225.568 87.5831Z" fill="#E6E6E6"/>
<path d="M291.969 1016.14C291.969 1018.2 291.454 1020.09 290.254 1021.63C288.024 1024.55 284.423 1025.41 281.165 1025.75C282.708 1027.46 284.423 1029.35 285.623 1031.58C287.853 1035.52 288.539 1039.81 287.853 1043.58C286.824 1048.04 283.394 1051.64 279.45 1052.67C275.677 1053.53 271.904 1052.67 268.474 1050.44C265.387 1048.39 262.643 1045.13 260.928 1041.35C260.585 1041.87 260.243 1042.38 259.728 1042.73C256.984 1045.47 253.04 1047.19 249.438 1047.01C243.779 1046.84 238.463 1042.21 236.748 1036.21C235.719 1032.44 236.062 1027.98 237.777 1024.03C234.004 1025.06 230.231 1025.06 225.772 1024.38C219.256 1023.35 213.596 1019.4 210.853 1014.26C207.766 1008.43 208.28 1000.54 212.053 994.022C214.625 989.564 218.741 985.619 224.229 982.189C223.886 982.018 223.543 981.675 223.2 981.332C221.314 979.789 220.456 977.559 220.628 975.501C220.799 973.958 221.657 972.586 223.029 971.728C224.744 970.528 226.973 970.185 229.031 970.528C230.403 970.871 232.461 971.385 234.176 972.414C234.519 969.842 235.033 967.098 236.748 964.869C238.291 962.982 240.864 961.61 243.265 961.782C245.323 961.782 247.038 962.639 248.067 964.011C249.267 965.726 249.61 967.955 249.095 970.356C248.924 971.042 248.753 971.557 248.581 971.9C252.182 972.071 255.784 972.414 259.214 973.272C264.358 974.472 268.817 976.873 271.904 979.96C275.677 983.733 277.392 989.049 276.534 993.851C276.02 996.423 274.819 999.167 272.761 1001.23C275.162 1001.4 277.563 1001.91 279.793 1002.6C284.937 1004.31 288.882 1007.57 290.768 1011.69C291.626 1012.89 291.969 1014.6 291.969 1016.14ZM275.334 1024.03C275.334 1023.86 275.334 1023.52 275.505 1023.35C275.848 1022.66 276.534 1022.32 277.22 1022.32C279.107 1022.49 285.109 1022.83 287.681 1019.57C288.882 1018.03 289.053 1015.29 288.024 1012.89C286.652 1009.63 283.394 1007.06 279.107 1005.68C275.162 1004.31 270.704 1004.14 266.588 1003.97C265.73 1003.97 264.873 1003.11 264.873 1002.25C264.873 1001.4 265.559 1000.54 266.416 1000.54C270.189 1000.37 272.761 996.595 273.447 992.993C274.133 989.392 272.59 985.276 269.675 982.189C267.102 979.446 263.329 977.559 258.699 976.53C254.412 975.501 249.953 975.33 245.666 975.158C244.808 975.158 244.122 974.472 244.122 973.786C243.951 973.1 244.294 972.414 244.808 972.071C244.808 971.9 244.98 971.9 245.151 971.728C245.666 970.871 245.837 970.528 246.18 969.327C246.523 967.956 246.352 966.755 245.837 966.069C245.323 965.383 244.294 965.212 243.779 965.212C242.407 965.212 240.864 965.898 240.006 967.098C238.291 969.327 238.12 972.243 237.948 975.673C237.948 976.359 237.434 976.873 236.919 977.216C236.234 977.388 235.548 977.388 235.033 976.873C233.49 975.501 231.603 974.644 228.688 973.958C227.659 973.786 226.287 973.958 225.429 974.644C225.087 974.987 224.572 975.501 224.401 976.187C224.229 977.045 224.744 978.245 225.772 979.102C226.801 979.96 227.316 980.131 228.688 980.646L228.859 980.646C229.545 980.817 229.888 981.503 229.888 982.189C229.888 982.875 229.545 983.561 229.031 983.733C222.686 987.163 218.055 991.279 215.483 995.909C212.225 1001.4 211.882 1008.08 214.454 1012.72C216.683 1017 221.485 1020.26 226.801 1021.12C232.289 1021.98 236.405 1021.63 241.207 1019.57C241.893 1019.23 242.75 1019.4 243.265 1020.09C243.779 1020.6 243.779 1021.46 243.436 1022.15C240.521 1026.43 239.492 1031.41 240.692 1035.52C241.893 1039.98 246.009 1043.58 250.124 1043.76C252.697 1043.93 255.784 1042.55 257.842 1040.5C259.214 1039.12 259.9 1037.58 259.9 1036.04C259.9 1035.18 260.586 1034.32 261.443 1034.15C262.3 1033.98 263.158 1034.67 263.329 1035.52C264.187 1040.5 267.102 1045.13 271.047 1047.7C272.933 1048.9 275.848 1050.27 279.278 1049.41C282.022 1048.73 284.423 1046.16 285.109 1042.9C285.795 1039.98 285.109 1036.55 283.394 1033.47C281.508 1030.21 278.935 1027.63 276.534 1025.41C275.505 1024.89 275.334 1024.38 275.334 1024.03Z" fill="#E6E6E6"/>
<path d="M277.22 1043.41C277.22 1043.93 277.048 1044.44 276.534 1044.78C275.848 1045.3 274.648 1045.13 274.133 1044.44C250.639 1013.57 234.004 981.332 224.572 948.748C224.229 947.891 224.915 946.862 225.772 946.69C226.63 946.347 227.659 947.033 227.83 947.891C237.091 980.131 253.554 1011.86 276.705 1042.55C277.22 1042.55 277.22 1042.9 277.22 1043.41Z" fill="#E6E6E6"/>
<path d="M239.32 1015.29C239.32 1016.15 238.634 1016.83 237.777 1017C234.69 1017.35 231.432 1017.69 228.345 1017.17C224.058 1016.49 220.628 1014.09 218.741 1010.66C216.683 1007.06 216.683 1002.6 218.57 998.482C220.456 994.366 223.886 990.764 229.202 987.677C230.06 987.163 231.089 987.506 231.603 988.192C232.118 989.049 231.775 990.078 231.089 990.593C226.459 993.337 223.372 996.424 221.828 999.853C220.456 1002.94 220.456 1006.37 222 1009.11C223.372 1011.69 225.944 1013.4 229.202 1013.92C231.946 1014.26 234.69 1014.09 237.777 1013.74C238.634 1013.57 239.492 1014.26 239.663 1015.29C239.32 1015.12 239.32 1015.29 239.32 1015.29Z" fill="#E6E6E6"/>
<path d="M259.042 1031.41C259.042 1031.58 259.042 1031.75 258.871 1031.92C257.499 1035.87 253.726 1038.61 249.782 1038.61C247.724 1038.61 246.009 1037.75 244.808 1036.21C243.436 1034.49 243.093 1032.27 243.608 1030.21C243.779 1029.35 244.808 1028.66 245.666 1029.01C246.523 1029.18 247.209 1030.21 246.866 1031.06C246.523 1032.09 246.866 1033.29 247.552 1034.15C247.895 1034.67 248.581 1035.35 249.953 1035.35C252.526 1035.35 254.926 1033.47 255.784 1030.89C256.127 1030.04 257.156 1029.52 258.013 1029.86C258.528 1030.04 259.042 1030.72 259.042 1031.41Z" fill="#E6E6E6"/>
<path d="M268.988 1018.55C268.988 1019.4 268.303 1020.09 267.445 1020.26C264.187 1020.6 260.757 1019.75 257.155 1018.03C256.641 1021.12 255.612 1024.55 254.24 1027.29C253.897 1028.15 252.868 1028.49 252.011 1027.98C251.153 1027.63 250.81 1026.43 251.325 1025.75C252.868 1022.66 254.069 1018.37 254.24 1015.12C254.24 1014.6 254.583 1013.92 255.098 1013.74C255.612 1013.4 256.298 1013.4 256.812 1013.74C260.585 1015.97 264.187 1017 267.445 1016.83C268.131 1016.66 268.988 1017.35 268.988 1018.55Z" fill="#E6E6E6"/>
<path d="M269.332 1009.11L269.332 1009.28C269.16 1010.14 268.303 1010.83 267.445 1010.66C260.757 1009.63 254.583 1006.88 249.782 1004.14C249.439 1008.6 248.238 1013.4 246.866 1017.17C246.523 1018.03 245.494 1018.55 244.637 1018.2C243.779 1017.86 243.265 1016.83 243.608 1015.97C245.323 1011.69 246.352 1006.03 246.523 1001.22C246.523 1000.54 246.866 1000.02 247.381 999.681C247.895 999.338 248.581 999.338 249.096 999.681C253.554 1002.43 260.586 1006.03 267.788 1007.23C268.817 1007.57 269.332 1008.43 269.332 1009.11Z" fill="#E6E6E6"/>
<path d="M264.187 992.993C264.187 993.165 264.187 993.336 264.187 993.508C263.844 994.365 262.987 994.879 262.129 994.708C254.583 992.479 247.895 989.906 242.064 987.334C240.864 994.708 237.949 1001.57 233.49 1007.4C232.975 1008.08 231.775 1008.26 231.089 1007.74C230.403 1007.23 230.231 1006.03 230.746 1005.34C235.205 999.338 238.12 991.964 238.978 984.59C238.978 984.075 239.321 983.561 239.835 983.218C240.35 982.875 240.864 982.875 241.378 983.218C247.552 986.133 254.755 988.877 263.158 991.45C263.673 991.621 264.187 992.307 264.187 992.993Z" fill="#E6E6E6"/>
<path d="M304.454 107.99C304.454 101.988 305.312 95.9857 307.198 90.155C315.944 62.2017 340.468 46.2528 360.704 35.4488C367.907 31.676 375.452 28.0746 382.312 24.8162C397.918 17.6135 411.294 13.4977 423.47 11.9543C444.735 9.3819 469.43 18.9855 473.375 41.9655C477.49 65.9745 460.513 95.1283 445.25 117.594C434.617 133.2 396.203 183.104 346.813 166.469C321.089 157.895 304.454 133.714 304.454 107.99ZM362.247 38.5357C342.526 48.9967 318.86 64.4311 310.457 91.0124C301.196 120.852 317.831 153.264 347.67 163.211C394.831 178.988 431.873 130.799 442.163 115.536C457.426 93.5848 474.061 65.2885 470.116 42.48C466.343 21.7294 443.535 12.9832 423.985 15.3841C412.323 16.7561 399.118 20.8719 383.855 28.0746C376.824 31.1615 369.45 34.7628 362.247 38.5357Z" fill="#E6E6E6"/>
<path d="M313.886 107.133C313.886 99.4154 315.429 91.6982 318.516 84.4955C318.859 83.638 319.888 83.295 320.746 83.638C321.603 83.981 321.946 85.01 321.603 85.8674C312.514 106.961 318.002 132.513 334.637 146.404C351.271 160.295 377.853 161.667 397.746 149.491C398.603 148.977 399.632 149.32 400.147 150.006C400.661 150.863 400.318 151.892 399.632 152.407C378.539 165.269 350.242 163.897 332.407 149.148C320.403 138.859 313.886 123.253 313.886 107.133Z" fill="#E6E6E6"/>
<path d="M439.076 109.534C439.076 109.191 439.247 108.677 439.419 108.505C443.878 103.189 447.307 97.0152 449.365 90.4984C449.708 89.641 450.566 89.1265 451.595 89.298C452.452 89.641 452.967 90.4984 452.795 91.5274C450.566 98.5586 446.965 105.247 442.163 110.735C441.477 111.421 440.448 111.592 439.762 110.906C439.247 110.563 439.076 110.049 439.076 109.534Z" fill="#E6E6E6"/>
<path d="M388.657 32.3617C388.657 31.6757 389 31.1612 389.515 30.8182C398.089 26.3594 408.207 21.3861 419.354 19.4997C431.187 17.4418 442.334 19.3282 450.909 24.6445C460.856 30.8182 466.858 42.1367 465.486 52.7693C465.486 53.7983 464.628 54.4842 463.771 54.3127C462.913 54.1412 462.228 53.2838 462.228 52.4263C463.428 43.1657 458.112 33.2191 449.194 27.5599C441.305 22.5866 431.016 21.0431 420.04 22.9296C409.408 24.816 399.461 29.4463 391.23 33.9051C390.372 34.4196 389.343 34.0766 388.829 33.2191C388.829 32.8761 388.657 32.7046 388.657 32.3617Z" fill="#E6E6E6"/>
<path d="M332.579 75.4064C332.579 73.863 332.922 72.148 333.779 70.4331C337.038 62.8874 347.156 56.0277 353.673 56.7137C356.073 57.0567 358.131 58.0856 359.503 60.1436C361.39 62.7159 361.904 66.3173 361.218 69.9186C359.675 76.9498 353.501 81.5802 348.356 83.4666C345.955 84.324 340.125 86.039 336.009 82.4376C333.608 80.5512 332.579 78.1503 332.579 75.4064ZM357.96 66.8318C357.96 64.9454 357.445 63.2304 356.588 62.2015C355.73 61.001 354.53 60.315 353.158 60.315C348.013 59.8006 339.439 65.8028 336.695 71.9766C335.323 75.2349 335.666 77.9788 338.067 79.8652C340.811 82.2661 345.612 80.8942 346.984 80.3797C351.272 78.8363 356.588 74.8919 357.788 69.2327C357.96 68.5467 357.96 67.6892 357.96 66.8318Z" fill="#E6E6E6"/>
<path d="M327.091 99.0723C327.091 98.2149 327.263 97.5289 327.434 96.6714C327.949 94.785 329.149 92.5556 330.521 91.3551C332.751 89.2972 335.323 89.1257 337.381 91.0122C340.468 93.5846 340.468 101.13 339.782 103.703C339.096 106.275 337.381 107.99 335.323 108.333C333.265 108.847 330.864 107.818 329.321 105.589C327.777 103.703 327.091 101.473 327.091 99.0723ZM332.751 93.9275C331.722 94.9565 330.864 96.4999 330.693 97.5289C330.178 99.5868 330.693 101.816 332.065 103.36C332.922 104.389 333.951 104.903 334.808 104.732C335.666 104.56 336.352 103.703 336.695 102.502C337.381 99.9298 336.866 94.6135 335.494 93.4131C334.808 93.2416 334.122 92.7271 332.751 93.9275Z" fill="#E6E6E6"/>
<path d="M447.65 70.9476C447.65 67.3462 449.88 62.7159 451.252 61.1725C452.967 59.1146 455.024 58.2571 457.254 58.7716C459.312 59.2861 461.027 61.1725 461.713 63.7449C462.399 66.8317 461.713 70.0901 459.826 72.6625C458.626 74.2059 456.568 75.5779 454.853 76.2638C451.938 77.1213 449.537 76.2638 448.336 73.8629C447.822 72.834 447.65 71.805 447.65 70.9476ZM458.454 65.9743C458.454 65.4598 458.454 64.9453 458.283 64.2593C457.94 62.8874 457.254 62.0299 456.396 61.8584C455.539 61.687 454.681 62.2014 453.824 63.0589C452.109 65.1168 450.394 70.2616 451.252 71.805C451.423 72.3195 451.938 73.0055 453.653 72.491C455.024 71.9765 456.396 70.9476 457.082 70.0901C457.94 69.0611 458.454 67.5177 458.454 65.9743Z" fill="#E6E6E6"/>
<path d="M336.523 655.052C336.523 638.589 341.325 621.782 355.388 607.72C379.054 584.225 417.811 583.882 441.477 606.862C462.571 627.27 465.829 656.252 466.343 679.061C466.515 687.293 466.343 695.524 466 703.07C465.486 720.219 463.085 734.11 459.141 745.6C451.938 765.665 432.216 783.5 410.094 776.812C386.599 769.952 368.25 741.656 354.873 717.818C349.214 707.529 336.523 681.805 336.523 655.052ZM462.914 679.232C462.399 656.938 459.312 628.814 439.248 609.435C416.782 587.655 380.254 588.17 357.96 610.292C322.632 645.277 349.042 700.155 358.131 716.103C371.165 739.426 389 767.037 411.123 773.725C431.359 779.899 449.366 763.264 456.054 744.571C459.827 733.424 462.056 719.876 462.571 703.07C462.742 695.524 463.085 687.293 462.914 679.232Z" fill="#E6E6E6"/>
<path d="M344.241 656.767C344.241 633.787 357.789 611.664 377.511 603.09C398.776 593.829 425.7 600.689 441.477 619.553C442.163 620.239 441.992 621.44 441.306 621.954C440.62 622.64 439.419 622.469 438.905 621.783C424.157 604.119 398.947 597.602 379.054 606.348C359.161 615.094 346.127 638.246 348.014 661.397C348.014 662.426 347.328 663.112 346.47 663.284C345.441 663.284 344.755 662.598 344.584 661.74C344.241 659.854 344.241 658.311 344.241 656.767Z" fill="#E6E6E6"/>
<path d="M362.419 717.476C362.419 716.79 362.762 716.104 363.448 715.932C364.305 715.589 365.334 715.932 365.677 716.79C368.421 723.135 372.365 728.966 377.339 733.767C378.025 734.453 378.025 735.482 377.339 736.168C376.653 736.854 375.624 736.854 374.938 736.168C369.621 731.024 365.334 724.85 362.419 717.99C362.419 717.819 362.419 717.647 362.419 717.476Z" fill="#E6E6E6"/>
<path d="M402.891 763.779C402.891 763.436 403.063 763.093 403.234 762.75C403.749 761.892 404.778 761.721 405.635 762.235C413.352 767.38 424.671 767.209 433.588 761.721C441.477 756.919 447.651 748.345 450.909 737.712C453.996 727.422 454.168 716.447 453.996 707.015C453.996 706.157 454.682 705.3 455.711 705.3C456.74 705.3 457.426 705.986 457.426 707.015C457.597 716.618 457.426 727.937 454.168 738.741C450.738 750.231 444.049 759.492 435.303 764.636C425.185 770.81 412.495 770.982 403.577 764.979C403.234 764.808 402.891 764.293 402.891 763.779Z" fill="#E6E6E6"/>
<path d="M428.786 648.879C428.786 648.022 428.786 647.165 428.958 646.307C429.301 643.906 430.33 637.904 435.475 635.675C439.762 633.96 443.878 635.16 447.136 639.104C452.452 645.45 453.996 657.626 450.395 663.113C449.023 665.171 447.136 666.543 444.735 666.886C441.648 667.401 438.219 666.2 435.303 663.971C430.501 660.198 428.786 654.196 428.786 648.879ZM449.023 655.225C449.023 650.423 447.308 644.764 444.564 641.334C442.334 638.59 439.762 637.732 436.847 638.933C433.417 640.305 432.559 645.278 432.388 646.65C431.873 651.109 432.902 657.626 437.361 661.227C439.591 662.942 442.163 663.799 444.221 663.456C445.593 663.285 446.793 662.427 447.479 661.227C448.508 659.855 449.023 657.797 449.023 655.225Z" fill="#E6E6E6"/>
<path d="M412.495 625.212C412.495 624.698 412.495 624.355 412.666 623.84C413.181 621.782 415.239 620.067 417.811 619.553C420.898 618.867 424.156 619.724 426.557 621.782C428.101 622.983 429.473 625.041 429.987 626.927C430.845 629.842 429.816 632.243 427.243 633.272C423.642 634.987 416.782 631.557 414.896 629.671C413.352 628.471 412.495 626.927 412.495 625.212ZM426.729 628.985C426.729 628.813 426.729 628.47 426.557 628.128C426.214 626.756 425.185 625.384 424.328 624.698C422.785 623.326 420.555 622.811 418.497 623.154C417.125 623.497 416.268 624.012 415.925 624.869C415.753 625.727 416.096 626.584 417.125 627.442C419.012 629.156 424.156 631.043 425.7 630.357C426.043 630.185 426.729 629.842 426.729 628.985Z" fill="#E6E6E6"/>
<path d="M387.8 746.286C387.8 745.771 387.8 745.428 387.971 744.914C388.486 741.999 390.372 740.284 393.116 740.284C397.232 740.284 401.862 746.114 402.891 748.515C403.92 750.916 403.749 753.317 402.377 754.861C401.005 756.576 398.604 757.261 396.032 756.576C392.945 755.89 390.372 753.832 389 750.916C388.143 749.716 387.8 748.001 387.8 746.286ZM391.23 745.428C391.058 746.972 391.401 748.515 391.916 749.544C392.773 751.431 394.66 752.803 396.718 753.317C398.089 753.66 399.118 753.317 399.804 752.803C400.319 752.117 400.319 751.088 399.804 749.887C398.775 747.486 394.831 743.714 393.116 743.714C392.43 743.714 391.573 743.714 391.23 745.428Z" fill="#E6E6E6"/>
<path d="M0.0547743 108.676C0.0547754 83.8098 4.34208 59.6294 14.4602 40.2507C29.38 11.2684 63.5071 -4.16595 101.578 0.978837C118.556 3.20824 138.106 16.0702 148.225 31.3331C155.084 41.7941 157.142 52.5982 154.398 62.7162C151.997 71.4624 146.51 78.6651 141.365 85.8678C135.877 93.2419 130.732 100.445 128.674 108.848C125.93 120.166 129.36 131.485 132.962 143.489C135.877 153.264 138.964 163.211 138.449 173.501C136.735 206.084 101.75 223.062 91.1174 227.521C63.8501 238.839 39.4981 232.837 26.1216 211.4C10.3443 186.02 0.0547726 146.748 0.0547743 108.676ZM151.997 53.7986C151.997 45.567 148.567 38.1928 145.138 33.2195C135.534 18.6426 117.013 6.46661 100.893 4.40869C73.2822 0.63585 34.6963 8.18153 17.3756 41.7941C-7.49089 89.8121 3.3131 168.699 28.694 209.514C46.5293 238.325 77.055 229.407 89.4025 224.434C110.496 215.688 133.305 197.681 134.677 173.329C135.191 163.725 132.276 153.95 129.36 144.518C125.759 132.685 121.986 120.338 125.073 108.162C127.302 99.0727 132.962 91.3555 138.449 83.9813C143.423 77.1216 148.739 70.0904 150.968 62.0303C151.654 58.9434 151.997 56.371 151.997 53.7986Z" fill="#E6E6E6"/>
<path d="M37.4404 140.574C37.4404 134.743 38.2979 128.741 39.8413 122.739C43.4426 109.534 54.2467 95.3001 70.1955 93.4137C83.0575 91.8703 96.9484 99.073 105.352 111.935C113.583 124.282 115.984 139.717 111.697 153.265C107.238 167.327 95.5764 178.646 81.6855 182.075C68.3091 185.334 56.9906 182.761 49.1019 174.53C41.5562 166.813 37.4404 154.122 37.4404 140.574ZM110.325 139.717C110.325 130.799 107.581 121.71 102.436 113.993C94.719 102.16 82.2 95.4716 70.5385 97.0151C58.3625 98.5585 47.044 109.534 43.0996 123.768C38.1263 141.946 41.5562 161.839 51.5028 172.129C58.534 179.503 68.8236 181.732 80.8281 178.817C93.5185 175.73 104.323 165.269 108.438 152.407C109.639 148.291 110.325 144.004 110.325 139.717Z" fill="#E6E6E6"/>
<path d="M59.9058 168.185C59.9058 167.842 60.0773 167.327 60.4203 166.984C61.1062 166.298 62.1352 166.298 62.8212 166.984C66.594 170.414 71.7388 172.472 76.8835 172.129C82.0283 171.958 87.0016 169.728 90.4315 165.955C91.1175 165.269 92.1464 165.269 92.8324 165.784C93.5184 166.47 93.5184 167.499 93.0039 168.185C88.8881 172.644 83.0573 175.388 77.0551 175.559C71.0528 175.731 65.0506 173.501 60.5917 169.385C60.0773 169.042 59.9058 168.528 59.9058 168.185Z" fill="#E6E6E6"/>
<path d="M97.9776 158.752C97.9776 158.409 98.1491 158.066 98.3206 157.723C102.779 152.236 104.666 144.69 103.637 137.659C103.465 136.801 104.151 135.772 105.009 135.772C105.866 135.601 106.895 136.287 106.895 137.144C108.096 145.033 105.695 153.436 100.893 159.781C100.379 160.467 99.1781 160.639 98.4921 160.124C98.3206 159.781 97.9776 159.267 97.9776 158.752Z" fill="#E6E6E6"/>
<path d="M9.83012 114.164C9.83012 89.8119 15.3179 58.0857 26.4649 39.05C37.7835 19.6713 58.7056 10.5822 90.7747 11.6112C115.984 12.2971 141.708 25.1591 142.394 52.255C142.394 53.1124 141.708 53.9699 140.679 53.9699C139.65 53.9699 138.964 53.2839 138.964 52.255C138.45 27.3885 114.269 15.727 90.7747 15.041C60.0775 14.1836 40.0128 22.5867 29.5518 40.7649C16.6898 62.8875 11.545 103.017 14.1174 127.197C14.2889 128.055 13.603 128.912 12.574 129.084C11.7165 129.255 10.8591 128.569 10.6876 127.54C10.0016 123.596 9.83012 118.966 9.83012 114.164Z" fill="#E6E6E6"/>
<path d="M119.414 98.9017L119.414 98.7302C120.957 87.7546 126.617 77.2936 135.02 70.2624C135.706 69.5764 136.906 69.7479 137.421 70.4339C138.107 71.1198 137.935 72.3203 137.249 72.8348C129.361 79.3515 124.216 88.9551 122.844 99.0732C122.672 99.9306 121.815 100.617 120.957 100.617C120.1 100.617 119.414 99.7591 119.414 98.9017Z" fill="#E6E6E6"/>
<path d="M67.623 218.089C67.7945 217.06 68.4804 216.374 69.5094 216.374C84.7723 217.746 100.55 211.743 111.011 200.596C121.472 189.449 126.445 173.158 123.873 158.066C123.701 157.209 124.387 156.18 125.245 156.18C126.102 156.008 127.131 156.694 127.131 157.552C129.703 173.672 124.559 190.993 113.412 202.997C102.265 214.83 85.2867 221.347 68.9949 219.804C68.3089 219.804 67.623 219.118 67.623 218.089Z" fill="#E6E6E6"/>
<path d="M24.407 181.046C24.407 180.189 25.093 179.331 25.9505 179.331C26.9795 179.331 27.6654 180.017 27.8369 180.874C29.2088 197.509 41.2133 213.115 56.8192 218.774C57.6766 219.117 58.1911 220.146 57.8481 221.004C57.5051 221.861 56.4762 222.376 55.6187 222.033C38.4694 215.859 25.9505 199.396 24.407 181.046C24.407 181.217 24.407 181.217 24.407 181.046Z" fill="#E6E6E6"/>
<path d="M105.695 33.2191C105.695 32.8761 105.695 32.5331 105.866 32.1901C106.038 30.9897 106.723 29.9607 107.752 29.4463C107.924 29.2748 108.267 29.2748 108.438 29.2748C108.61 28.9318 109.124 28.5888 109.639 28.5888C112.554 28.0743 116.327 27.3883 119.757 29.1033C121.815 30.1322 123.53 32.1901 124.044 34.4196C124.387 36.306 124.044 38.0209 123.015 39.3928C120.786 41.9652 117.185 42.3082 112.04 40.0788C110.496 39.3928 108.438 38.5354 107.066 36.649C106.209 35.62 105.695 34.4195 105.695 33.2191ZM109.982 31.8472C109.81 32.0187 109.639 32.1901 109.467 32.3616C109.296 32.5331 109.124 32.7046 109.124 32.8761C108.953 33.3906 109.124 34.0766 109.467 34.4195C110.153 35.4485 111.354 35.963 113.069 36.649C115.47 37.6779 118.728 38.5354 120.1 36.9919C120.614 36.306 120.614 35.62 120.443 34.934C120.1 33.7336 119.242 32.5331 118.042 32.0187C115.984 30.9897 113.24 31.3327 109.982 31.8472C110.153 31.8472 110.153 31.8472 109.982 31.8472Z" fill="#E6E6E6"/>
<path d="M46.0154 41.4508C46.0154 40.0788 46.3584 38.7069 47.0444 37.335C50.8172 30.1323 63.6792 24.816 69.1669 23.9585C75.5122 23.1011 81.8574 26.5309 83.9153 31.8472C85.4588 36.1345 83.5724 40.5933 78.9421 43.6802C72.5968 47.796 65.2226 50.0254 57.6769 50.0254C52.3607 50.0254 48.5878 48.482 47.0444 45.2236C46.3584 44.0232 46.0154 42.8227 46.0154 41.4508ZM81 34.9341C81 34.2481 80.8285 33.7336 80.657 33.0476C79.4565 29.7893 74.8262 26.7024 69.6814 27.3884C64.7081 28.0743 53.2181 33.0476 50.1313 38.8784C49.2738 40.5933 49.2738 42.1368 49.9598 43.6802C51.3317 46.2526 55.2761 46.5956 57.5055 46.5956C64.3652 46.4241 71.2249 44.3662 77.0556 40.7648C79.628 39.0499 81 36.992 81 34.9341Z" fill="#E6E6E6"/>
</svg>
